<svg xmlns="http://www.w3.org/2000/svg" xmlns:xlink="http://www.w3.org/1999/xlink" viewBox="0 0 20 20">
  <path d="M15.684 16.959L10.879 8.52a2.354 2.354 0 001.517-2.186c0-1.296-1.076-2.323-2.396-2.323S7.604 5.037 7.604 6.333c0 .993.63 1.843 1.517 2.186l-4.818 8.439a.468.468 0 00.412.708h10.558a.468.468 0 00.411-.707M8.562 6.333c0-.778.645-1.382 1.438-1.382s1.438.604 1.438 1.382c0 .779-.645 1.412-1.438 1.412s-1.438-.632-1.438-1.412M5.55 16.726L10 8.91l4.435 7.815H5.55zm9.735-7.106c1.26-2.046 1.26-4.525 0-6.572a.465.465 0 01.162-.646.484.484 0 01.658.16c1.443 2.346 1.443 5.2 0 7.546-.236.382-.641.17-.658.159a.467.467 0 01-.162-.647m-1.89-1.612a4.113 4.113 0 000-3.349.468.468 0 01.246-.62.484.484 0 01.632.242 5.038 5.038 0 010 4.106c-.214.479-.747.192-.632.242a.467.467 0 01-.246-.621m-9.5 2.099c-1.444-2.346-1.444-5.2 0-7.546a.484.484 0 01.658-.16.466.466 0 01.162.646c-1.26 2.047-1.26 4.525 0 6.572a.466.466 0 01-.162.646c-.018.012-.422.224-.658-.158m1.833-1.72a5.038 5.038 0 010-4.106.483.483 0 01.631-.242.468.468 0 01.247.62 4.113 4.113 0 000 3.349.468.468 0 01-.247.62.483.483 0 01-.631-.241" fill="#b1935e"/>
</svg>